<?xml version="1.0" encoding="utf-8"?>
<!-- Generator: Adobe Illustrator 24.1.0, SVG Export Plug-In . SVG Version: 6.00 Build 0)  -->
<svg version="1.1" id="logo" xmlns="http://www.w3.org/2000/svg" xmlns:xlink="http://www.w3.org/1999/xlink" x="0px" y="0px"
	 viewBox="0 0 728 166" style="enable-background:new 0 0 728 166;" xml:space="preserve">
<style type="text/css">
	.st0{fill:#15003E;}
	.st1{fill:#0FCE7C;}
</style>
<path id="g" class="st0" d="M88,81.2h35.4v2.8c0,6.4-0.8,12.1-2.3,17.1c-1.5,4.6-4,8.9-7.5,12.9c-8,9-18.1,13.4-30.4,13.4
	c-12,0-22.3-4.3-30.8-13c-8.6-8.7-12.8-19.1-12.8-31.3c0-12.4,4.3-23,13.1-31.7c8.7-8.7,19.3-13.1,31.8-13.1c6.7,0,13,1.4,18.8,4.1
	c5.6,2.7,11,7.2,16.4,13.3l-9.2,8.8c-7-9.4-15.6-14.1-25.7-14.1c-9.1,0-16.7,3.1-22.8,9.4c-6.1,6.1-9.2,13.8-9.2,23.1
	c0,9.6,3.4,17.4,10.3,23.6c6.4,5.7,13.3,8.6,20.8,8.6c6.4,0,12.1-2.1,17.2-6.4c5.1-4.3,7.9-9.5,8.5-15.5H88V81.2z"/>
<rect id="i" x="167.3" y="40.2" class="st0" width="12.9" height="85.8"/>
<polygon id="t" class="st0" points="256.1,52.3 256.1,125.9 243.1,125.9 243.1,52.3 223.4,52.3 223.4,40.1 275.7,40.1 275.7,52.3 
	"/>
<path id="c" class="st0" d="M378.2,44.7V60c-7.5-6.3-15.2-9.4-23.2-9.4c-8.8,0-16.2,3.2-22.3,9.5c-6.1,6.3-9.1,14-9.1,23.1
	c0,9,3,16.6,9.1,22.8c6.1,6.2,13.5,9.3,22.3,9.3c4.6,0,8.4-0.7,11.6-2.2c1.8-0.7,3.6-1.7,5.5-3c1.9-1.3,3.9-2.8,6-4.6v15.6
	c-7.4,4.2-15.2,6.3-23.3,6.3c-12.3,0-22.7-4.3-31.4-12.8c-8.6-8.6-12.9-19-12.9-31.2c0-10.9,3.6-20.7,10.8-29.2
	c8.9-10.5,20.4-15.7,34.5-15.7C363.6,38.5,371,40.6,378.2,44.7"/>
<path id="o" class="st1" d="M433,82.8c0,9.5,3.2,17.3,9.6,23.4c6.3,6.1,13.6,9.2,21.9,9.2c9,0,16.6-3.1,22.8-9.3
	c6.2-6.3,9.3-13.9,9.3-23c0-9.1-3.1-16.8-9.2-23c-6.1-6.2-13.6-9.3-22.5-9.3c-8.9,0-16.5,3.1-22.6,9.3C436.1,66.2,433,73.8,433,82.8
	 M420,82.6c0-12.1,4.4-22.4,13.3-31.1c8.8-8.7,19.4-13,31.8-13c12.2,0,22.7,4.4,31.4,13.1c8.8,8.7,13.2,19.2,13.2,31.5
	c0,12.3-4.4,22.8-13.2,31.4c-8.8,8.6-19.5,12.9-32,12.9c-11.1,0-21-3.8-29.8-11.5C424.8,107.5,420,96.4,420,82.6"/>
<rect id="i_1_" x="549.8" y="40.1" class="st0" width="12.9" height="85.8"/>
<polygon id="n" class="st0" points="612.9,125.9 612.9,34.3 675.4,99.7 675.4,40.2 688.3,40.2 688.3,131.1 625.8,65.9 625.8,125.9 
	"/>
</svg>
