<?xml version="1.0" encoding="UTF-8" standalone="no"?>
<!-- Created with Keyshape -->
<svg xmlns="http://www.w3.org/2000/svg" id="logo" viewBox="0 0 728 166" style="white-space: preserve-spaces;">
    <style>
@keyframes o_t { 0% { transform: translate(-3px,-2px); } 83.3333% { transform: translate(-3px,-2px); animation-timing-function: cubic-bezier(0,0,0.58,1); } 90% { transform: translate(-3px,-35.9px); animation-timing-function: cubic-bezier(0.42,0,1,1); } 100% { transform: translate(-3px,-2px); } }
@keyframes o_d { 0% { d: path('M433,82.8C433,92.3,436.2,100.1,442.6,106.2C448.9,112.3,456.2,115.4,464.5,115.4C473.5,115.4,481.1,112.3,487.3,106.1C493.5,99.8,496.6,92.2,496.6,83.1C496.6,74,493.5,66.3,487.4,60.1C481.3,53.9,473.8,50.8,464.9,50.8C456,50.8,448.4,53.9,442.3,60.1C436.1,66.2,433,73.8,433,82.8M420,82.6C420,70.5,424.4,60.2,433.3,51.5C442.1,42.8,452.7,38.5,465.1,38.5C477.3,38.5,487.8,42.9,496.5,51.6C505.3,60.3,509.7,70.8,509.7,83.1C509.7,95.4,505.3,105.9,496.5,114.5C487.7,123.1,477,127.4,464.5,127.4C453.4,127.4,443.5,123.6,434.7,115.9C424.8,107.5,420,96.4,420,82.6'); } 83.3333% { d: path('M433,82.8C433,92.3,436.2,100.1,442.6,106.2C448.9,112.3,456.2,115.4,464.5,115.4C473.5,115.4,481.1,112.3,487.3,106.1C493.5,99.8,496.6,92.2,496.6,83.1C496.6,74,493.5,66.3,487.4,60.1C481.3,53.9,473.8,50.8,464.9,50.8C456,50.8,448.4,53.9,442.3,60.1C436.1,66.2,433,73.8,433,82.8M420,82.6C420,70.5,424.4,60.2,433.3,51.5C442.1,42.8,452.7,38.5,465.1,38.5C477.3,38.5,487.8,42.9,496.5,51.6C505.3,60.3,509.7,70.8,509.7,83.1C509.7,95.4,505.3,105.9,496.5,114.5C487.7,123.1,477,127.4,464.5,127.4C453.4,127.4,443.5,123.6,434.7,115.9C424.8,107.5,420,96.4,420,82.6'); animation-timing-function: cubic-bezier(0,0,0.58,1); } 90% { d: path('M464.957,82.8C464.957,92.3,464.946,100.1,464.924,106.2C464.903,112.3,464.879,115.4,464.851,115.4C464.821,115.4,464.796,112.3,464.775,106.1C464.754,99.8,464.744,92.2,464.744,83.1C464.744,74,464.754,66.3,464.775,60.1C464.795,53.9,464.82,50.8,464.85,50.8C464.88,50.8,464.905,53.9,464.925,60.1C464.946,66.2,464.957,73.8,464.957,82.8M465,82.6C465,70.5,464.985,60.2,464.956,51.5C464.926,42.8,464.891,38.5,464.849,38.5C464.808,38.5,464.773,42.9,464.744,51.6C464.715,60.3,464.7,70.8,464.7,83.1C464.7,95.4,464.715,105.9,464.744,114.5C464.774,123.1,464.809,127.4,464.851,127.4C464.888,127.4,464.921,123.6,464.951,115.9C464.984,107.5,465,96.4,465,82.6'); animation-timing-function: cubic-bezier(0.42,0,1,1); } 100% { d: path('M433,82.8C433,92.3,436.2,100.1,442.6,106.2C448.9,112.3,456.2,115.4,464.5,115.4C473.5,115.4,481.1,112.3,487.3,106.1C493.5,99.8,496.6,92.2,496.6,83.1C496.6,74,493.5,66.3,487.4,60.1C481.3,53.9,473.8,50.8,464.9,50.8C456,50.8,448.4,53.9,442.3,60.1C436.1,66.2,433,73.8,433,82.8M420,82.6C420,70.5,424.4,60.2,433.3,51.5C442.1,42.8,452.7,38.5,465.1,38.5C477.3,38.5,487.8,42.9,496.5,51.6C505.3,60.3,509.7,70.8,509.7,83.1C509.7,95.4,505.3,105.9,496.5,114.5C487.7,123.1,477,127.4,464.5,127.4C453.4,127.4,443.5,123.6,434.7,115.9C424.8,107.5,420,96.4,420,82.6'); } }
    </style>
    <path id="g" class="st0" d="M88,81.2L123.4,81.2L123.4,84C123.4,90.4,122.6,96.1,121.1,101.1C119.6,105.7,117.1,110,113.6,114C105.6,123,95.5,127.4,83.2,127.4C71.2,127.4,60.9,123.1,52.4,114.4C43.8,105.7,39.6,95.3,39.6,83.1C39.6,70.7,43.9,60.1,52.7,51.4C61.4,42.7,72,38.3,84.5,38.3C91.2,38.3,97.5,39.7,103.3,42.4C108.9,45.1,114.3,49.6,119.7,55.7L110.5,64.5C103.5,55.1,94.9,50.4,84.8,50.4C75.7,50.4,68.1,53.5,62,59.8C55.9,65.9,52.8,73.6,52.8,82.9C52.8,92.5,56.2,100.3,63.1,106.5C69.5,112.2,76.4,115.1,83.9,115.1C90.3,115.1,96,113,101.1,108.7C106.2,104.4,109,99.2,109.6,93.2L88,93.2L88,81.2Z" fill="#ffffff"/>
    <rect id="i" class="st0" width="12.9" height="85.8" fill="#ffffff" transform="translate(0,0) translate(167.3,40.2)"/>
    <path id="t" class="st0" d="M256.1,52.3L256.1,125.9L243.1,125.9L243.1,52.3L223.4,52.3L223.4,40.1L275.7,40.1L275.7,52.3Z" fill="#ffffff"/>
    <path id="c" class="st0" d="M378.2,44.7L378.2,60C370.7,53.7,363,50.6,355,50.6C346.2,50.6,338.8,53.8,332.7,60.1C326.6,66.4,323.6,74.1,323.6,83.2C323.6,92.2,326.6,99.8,332.7,106C338.8,112.2,346.2,115.3,355,115.3C359.6,115.3,363.4,114.6,366.6,113.1C368.4,112.4,370.2,111.4,372.1,110.1C374,108.8,376,107.3,378.1,105.5L378.1,121.1C370.7,125.3,362.9,127.4,354.8,127.4C342.5,127.4,332.1,123.1,323.4,114.6C314.8,106,310.5,95.6,310.5,83.4C310.5,72.5,314.1,62.7,321.3,54.2C330.2,43.7,341.7,38.5,355.8,38.5C363.6,38.5,371,40.6,378.2,44.7" fill="#ffffff"/>
    <path id="o" class="st1" d="M433,82.8C433,92.3,436.2,100.1,442.6,106.2C448.9,112.3,456.2,115.4,464.5,115.4C473.5,115.4,481.1,112.3,487.3,106.1C493.5,99.8,496.6,92.2,496.6,83.1C496.6,74,493.5,66.3,487.4,60.1C481.3,53.9,473.8,50.8,464.9,50.8C456,50.8,448.4,53.9,442.3,60.1C436.1,66.2,433,73.8,433,82.8M420,82.6C420,70.5,424.4,60.2,433.3,51.5C442.1,42.8,452.7,38.5,465.1,38.5C477.3,38.5,487.8,42.9,496.5,51.6C505.3,60.3,509.7,70.8,509.7,83.1C509.7,95.4,505.3,105.9,496.5,114.5C487.7,123.1,477,127.4,464.5,127.4C453.4,127.4,443.5,123.6,434.7,115.9C424.8,107.5,420,96.4,420,82.6" fill="#0FCE7C" transform="translate(-3,-2)" style="animation: 3s linear infinite both o_t, 3s linear infinite both o_d;"/>
    <rect id="i-2" class="st0" width="12.9" height="85.8" fill="#ffffff" transform="translate(0,0) translate(549.8,40.1)"/>
    <path id="n" class="st0" d="M612.9,125.9L612.9,34.3L675.4,99.7L675.4,40.2L688.3,40.2L688.3,131.1L625.8,65.9L625.8,125.9Z" fill="#ffffff"/>
</svg>
